<?xml version="1.0" encoding="UTF-8"?>
<!DOCTYPE svg PUBLIC "-//W3C//DTD SVG 1.1//EN" "http://www.w3.org/Graphics/SVG/1.1/DTD/svg11.dtd">
<!-- Creator: CorelDRAW 2019 (64-Bit) -->
<svg xmlns="http://www.w3.org/2000/svg" xml:space="preserve" width="230.807mm" height="230.807mm" version="1.1" style="shape-rendering:geometricPrecision; text-rendering:geometricPrecision; image-rendering:optimizeQuality; fill-rule:evenodd; clip-rule:evenodd"
viewBox="0 0 21612.28 21612.28"
 xmlns:xlink="http://www.w3.org/1999/xlink"
 xmlns:xodm="http://www.corel.com/coreldraw/odm/2003">
 <defs>
  <style type="text/css">
   <![CDATA[
    .str0 {stroke:black;stroke-width:7.14;stroke-miterlimit:22.9256}
    .fil3 {fill:none}
    .fil2 {fill:white}
    .fil1 {fill:#F27801}
    .fil0 {fill:#141C26}
   ]]>
  </style>
 </defs>
 <g id="Capa_x0020_1">
  <metadata id="CorelCorpID_0Corel-Layer"/>
  <g id="_1548203312032">
   <path class="fil0 str0" d="M10806.14 3.57c5966.1,0 10802.57,4836.47 10802.57,10802.57 0,5966.1 -4836.47,10802.57 -10802.57,10802.57 -5966.1,0 -10802.57,-4836.47 -10802.57,-10802.57 0,-5966.1 4836.47,-10802.57 10802.57,-10802.57z"/>
   <g>
    <path class="fil1" d="M5976.94 5976.65c2187.7,-2187.7 5489.99,-2580.4 8078.45,-1179.17 130.57,70.68 212.38,187.87 233.79,334.81 21.4,146.93 -23.62,282.6 -128.6,387.59l-1060.77 1060.77c-115.82,115.82 -277.09,158.39 -427.79,121.49 -1681.05,-771.69 -3735.35,-465.71 -5119.91,918.86 -1778.11,1778.11 -1778.11,4660.98 0,6439.08 1778.11,1778.1 4660.99,1778.1 6439.09,0 1437.46,-1437.46 1712.35,-3596.76 825.65,-5310.86 -45.84,-137.04 -23.68,-286.91 61.57,-405.68l1097.82 -1097.82c102.88,-102.88 234.83,-148.03 379.17,-129.74 144.34,18.27 260.87,94.85 334.87,220.12 1546.97,2618.98 1195.6,6048.8 -1054.73,8299.13 -2667.15,2667.15 -6991.46,2667.17 -9658.61,0.02 -2667.15,-2667.15 -2667.13,-6991.45 0.02,-9658.6z"/>
    <path class="fil2" d="M13309.88 7658.39l3935.44 -3935.43c177.33,-177.34 466.57,-177.34 643.9,0l0 0c177.34,177.33 177.3,466.61 0,643.9l-3935.43 3935.44c-152.1,152.09 -177.88,382.6 -63.23,564.61 886.49,1407.18 716.97,3289 -508.69,4514.66 -1422.49,1422.5 -3728.78,1422.5 -5151.26,0 -1422.49,-1422.49 -1422.49,-3728.77 0,-5151.25 1225.66,-1225.67 3107.48,-1395.15 4514.67,-508.69 181.97,114.64 412.5,88.87 564.61,-63.23zm4096.42 -3774.46l-643.91 643.91c-88.53,88.53 -88.53,233.41 0,321.95l0 0c88.53,88.53 233.42,88.53 321.95,0l643.91 -643.91c88.53,-88.53 88.53,-233.42 0,-321.95l0 0c-88.53,-88.53 -233.42,-88.53 -321.95,0z"/>
   </g>
   <circle class="fil3" cx="10806.14" cy="10806.14" r="10802.57"/>
  </g>
 </g>
</svg>
