<?xml version="1.0" encoding="UTF-8"?>
<!DOCTYPE svg PUBLIC "-//W3C//DTD SVG 1.1//EN" "http://www.w3.org/Graphics/SVG/1.1/DTD/svg11.dtd">
<!-- Creator: CorelDRAW 2019 (64-Bit) -->
<svg xmlns="http://www.w3.org/2000/svg" xml:space="preserve" width="92.1876mm" height="92.1876mm" version="1.1" style="shape-rendering:geometricPrecision; text-rendering:geometricPrecision; image-rendering:optimizeQuality; fill-rule:evenodd; clip-rule:evenodd"
viewBox="0 0 9051.03 9051.03"
 xmlns:xlink="http://www.w3.org/1999/xlink"
 xmlns:xodm="http://www.corel.com/coreldraw/odm/2003">
 <defs>
  <style type="text/css">
   <![CDATA[
    .fil2 {fill:none}
    .fil0 {fill:#F27801}
    .fil1 {fill:#141C26}
   ]]>
  </style>
 </defs>
 <g id="Capa_x0020_1">
  <metadata id="CorelCorpID_0Corel-Layer"/>
  <g id="_1548223554880">
   <path class="fil0" d="M2442.84 2442.71c943.49,-943.48 2367.65,-1112.84 3483.98,-508.54 56.31,30.49 91.59,81.03 100.82,144.39 9.23,63.37 -10.18,121.87 -55.46,167.15l-457.47 457.48c-49.95,49.94 -119.51,68.3 -184.5,52.39 -724.98,-332.8 -1610.93,-200.84 -2208.04,396.28 -766.84,766.84 -766.84,2010.13 0,2776.96 766.83,766.84 2010.12,766.84 2776.96,0 619.93,-619.92 738.48,-1551.16 356.08,-2290.39 -19.76,-59.1 -10.21,-123.74 26.55,-174.96l473.46 -473.45c44.37,-44.37 101.27,-63.85 163.52,-55.96 62.26,7.88 112.51,40.91 144.41,94.93 667.17,1129.49 515.63,2608.66 -454.86,3579.15 -1150.25,1150.25 -3015.19,1150.26 -4165.45,0.01 -1150.25,-1150.25 -1150.24,-3015.19 0.01,-4165.45z"/>
   <path class="fil1" d="M5605.29 3167.99l1697.23 -1697.22c76.48,-76.48 201.22,-76.48 277.69,0l0 0c76.48,76.47 76.46,201.23 0,277.69l-1697.22 1697.23c-65.59,65.58 -76.72,165 -27.27,243.5 382.32,606.86 309.21,1418.43 -219.37,1947.03 -613.48,613.47 -1608.1,613.47 -2221.58,0 -613.47,-613.48 -613.47,-1608.1 0,-2221.58 528.59,-528.58 1340.16,-601.67 1947.03,-219.37 78.48,49.44 177.9,38.33 243.5,-27.27zm1766.65 -1627.79l-277.69 277.69c-38.18,38.18 -38.18,100.66 0,138.85l0 0c38.18,38.18 100.66,38.18 138.85,0l277.69 -277.69c38.18,-38.18 38.18,-100.66 0,-138.85l0 0c-38.18,-38.18 -100.66,-38.18 -138.85,0z"/>
  </g>
  <circle class="fil2" cx="4525.51" cy="4525.51" r="4525.51"/>
 </g>
</svg>
