<?xml version="1.0" encoding="UTF-8"?>
<!DOCTYPE svg PUBLIC "-//W3C//DTD SVG 1.1//EN" "http://www.w3.org/Graphics/SVG/1.1/DTD/svg11.dtd">
<!-- Creator: CorelDRAW 2019 (64-Bit) -->
<svg xmlns="http://www.w3.org/2000/svg" xml:space="preserve" width="280.076mm" height="280.076mm" version="1.1" style="shape-rendering:geometricPrecision; text-rendering:geometricPrecision; image-rendering:optimizeQuality; fill-rule:evenodd; clip-rule:evenodd"
viewBox="0 0 28006.56 28006.56"
 xmlns:xlink="http://www.w3.org/1999/xlink"
 xmlns:xodm="http://www.corel.com/coreldraw/odm/2003">
 <defs>
  <style type="text/css">
   <![CDATA[
    .str0 {stroke:black;stroke-width:7.62;stroke-miterlimit:22.9256}
    .str1 {stroke:#F27801;stroke-width:7.62;stroke-miterlimit:22.9256}
    .fil4 {fill:white}
    .fil3 {fill:#F27801}
    .fil0 {fill:#141C26}
    .fil1 {fill:white;fill-rule:nonzero}
    .fil2 {fill:#F27801;fill-rule:nonzero}
   ]]>
  </style>
 </defs>
 <g id="Capa_x0020_1">
  <metadata id="CorelCorpID_0Corel-Layer"/>
  <g id="_1548203296256">
   <rect class="fil0 str0" x="3.81" y="3.81" width="27998.94" height="27998.94"/>
   <g>
    <path class="fil1" d="M8800.51 11838.34l1207.99 0 0 181.7 -182.42 0c-106.77,0 -176.92,13.14 -210.48,40 -33.55,26.85 -50.03,97.14 -50.03,210.84l0 1686.15 585.7 0c178.14,0 314.81,-16 411.19,-47.99 97.02,-31.43 164.73,-82.86 204.38,-153.13 31.74,-57.14 54.92,-126.85 69.56,-209.7 14.04,-82.85 21.35,-187.41 21.35,-313.69l0 -50.28 190.35 0 0 956.49 -2247.59 0 0 -181.7 149.47 0c106.15,0 175.7,-13.14 209.87,-40 33.55,-26.85 50.64,-98.28 50.64,-213.12l0 -1433.03c0,-113.71 -16.48,-183.99 -50.04,-210.84 -32.94,-26.86 -103.1,-40 -210.47,-40l-149.47 0 0 -181.7zm3672.17 1429.61c-61.62,28 -119.57,52.57 -173.87,73.14 -54.3,20.57 -106.16,38.85 -156.18,54.28l-140.93 44c-122.02,36.57 -209.86,79.43 -264.17,128.57 -54.29,49.14 -81.15,110.28 -81.15,183.98 0,73.71 25.63,132.55 77.49,176.55 51.86,44 121.41,66.29 208.04,66.29 168.39,0 298.34,-47.43 391.69,-141.7 92.74,-94.28 139.09,-227.41 139.09,-400.54l0 -184.55zm21.36 661.66c-96.4,90.28 -198.27,157.69 -305.05,202.83 -107.38,45.15 -219.64,68 -337.39,68 -163.49,0 -294.68,-40 -394.12,-120.56 -99.45,-80.57 -148.87,-186.27 -148.87,-318.27 0,-120.56 44.55,-217.69 133,-291.98 89.08,-74.28 243.43,-140.55 463.68,-198.26l289.18 -75.43c110.44,-29.14 184.25,-62.85 222.07,-101.71 37.22,-38.28 56.13,-97.14 56.13,-176.55 0,-92.57 -36.6,-166.27 -110.42,-221.7 -73.83,-55.42 -172.66,-82.85 -296.51,-82.85 -79.93,0 -153.14,12 -220.25,36 -66.5,24 -127.51,61.14 -183.63,111.42 52.47,9.72 93.34,29.71 122.63,60 29.29,30.28 43.93,68 43.93,113.71 0,49.14 -18.91,89.71 -57.35,121.71 -38.44,31.42 -86.03,47.42 -143.37,47.42 -64.67,0 -117.75,-19.99 -160.45,-59.42 -42.1,-39.43 -63.46,-89.14 -63.46,-149.13 0,-122.85 65.89,-225.69 198.29,-309.69 132.38,-84 299.56,-126.28 500.88,-126.28 102.51,0 198.28,10.86 287.36,33.14 89.69,22.29 160.45,52.57 212.92,90.28 66.51,46.86 113.49,98.86 140.32,155.42 26.85,56.56 40.27,147.41 40.27,271.97l0 799.37c0,74.85 8.54,127.42 25.63,157.7 17.69,30.28 46.37,45.14 86.63,45.14 58.57,0 99.45,-29.71 123.24,-89.71 23.8,-59.43 36.62,-170.27 39.05,-331.98l172.05 0 0 38.29c0,200.55 -30.51,346.26 -92.13,436.53 -61.01,90.28 -159.84,135.41 -295.9,135.41 -93.96,0 -169.61,-22.28 -226.96,-66.85 -56.74,-44.57 -97.61,-112.57 -121.41,-203.98zm3127.97 -661.66c-61.62,28 -119.58,52.57 -173.88,73.14 -54.29,20.57 -106.15,38.85 -156.18,54.28l-140.92 44c-122.03,36.57 -209.87,79.43 -264.18,128.57 -54.29,49.14 -81.15,110.28 -81.15,183.98 0,73.71 25.63,132.55 77.49,176.55 51.86,44 121.42,66.29 208.04,66.29 168.39,0 298.35,-47.43 391.69,-141.7 92.74,-94.28 139.1,-227.41 139.1,-400.54l0 -184.55zm21.35 661.66c-96.4,90.28 -198.27,157.69 -305.05,202.83 -107.38,45.15 -219.64,68 -337.39,68 -163.49,0 -294.68,-40 -394.12,-120.56 -99.45,-80.57 -148.86,-186.27 -148.86,-318.27 0,-120.56 44.54,-217.69 133,-291.98 89.07,-74.28 243.42,-140.55 463.67,-198.26l289.18 -75.43c110.44,-29.14 184.25,-62.85 222.07,-101.71 37.23,-38.28 56.14,-97.14 56.14,-176.55 0,-92.57 -36.61,-166.27 -110.43,-221.7 -73.83,-55.42 -172.66,-82.85 -296.51,-82.85 -79.93,0 -153.14,12 -220.24,36 -66.5,24 -127.52,61.14 -183.64,111.42 52.47,9.72 93.35,29.71 122.63,60 29.29,30.28 43.93,68 43.93,113.71 0,49.14 -18.91,89.71 -57.35,121.71 -38.44,31.42 -86.03,47.42 -143.37,47.42 -64.67,0 -117.75,-19.99 -160.45,-59.42 -42.1,-39.43 -63.45,-89.14 -63.45,-149.13 0,-122.85 65.89,-225.69 198.28,-309.69 132.38,-84 299.56,-126.28 500.88,-126.28 102.51,0 198.29,10.86 287.36,33.14 89.69,22.29 160.45,52.57 212.92,90.28 66.51,46.86 113.49,98.86 140.33,155.42 26.84,56.56 40.26,147.41 40.26,271.97l0 799.37c0,74.85 8.54,127.42 25.63,157.7 17.69,30.28 46.37,45.14 86.64,45.14 58.56,0 99.45,-29.71 123.24,-89.71 23.8,-59.43 36.61,-170.27 39.04,-331.98l172.05 0 0 38.29c0,200.55 -30.5,346.26 -92.12,436.53 -61.02,90.28 -159.85,135.41 -295.91,135.41 -93.95,0 -169.61,-22.28 -226.95,-66.85 -56.75,-44.57 -97.62,-112.57 -121.42,-203.98zm1355.64 -609.1c0,205.12 50.03,367.4 150.08,487.39 100.06,119.99 235.5,179.98 405.71,179.98 156.79,0 278.82,-57.71 365.45,-172.56 86.03,-114.85 129.35,-276.55 129.35,-485.1 0,-210.84 -43.32,-374.26 -130.57,-490.81 -86.64,-116.57 -209.26,-174.84 -367.89,-174.84 -166.55,0 -300.78,59.42 -401.44,178.26 -100.67,118.86 -150.69,277.7 -150.69,477.68zm-153.74 838.22l-161.06 0 0 -1960.42c0,-81.14 -15.26,-134.27 -45.76,-158.84 -30.51,-24.57 -93.35,-36.57 -188.52,-36.57l-73.21 0 0 -164.56 622.3 0 0 953.64c76.27,-113.71 164.11,-196.55 263.56,-249.7 99.45,-53.14 216.59,-79.99 350.82,-79.99 236.1,0 426.45,79.99 572.27,239.41 145.8,159.41 219.02,369.11 219.02,627.95 0,256.55 -72.61,463.96 -217.19,622.81 -144.59,158.27 -333.73,237.7 -566.79,237.7 -133.6,0 -251.35,-27.43 -354.46,-82.86 -103.12,-54.85 -192.18,-138.27 -267.23,-249.69l-153.74 301.12zm2096.91 -713.66l0 -562.24c0,-81.71 -15.87,-134.84 -47.59,-159.98 -31.73,-25.14 -95.18,-37.71 -190.35,-37.71l-80.54 0 0 -164.56 629.62 0 0 969.64c0,186.83 28.07,318.83 84.21,395.97 56.13,77.14 150.07,115.42 282.47,115.42 165.33,0 298.95,-50.85 400.22,-153.12 101.28,-102.29 151.91,-237.7 151.91,-406.82l0 -558.82c0,-81.71 -15.26,-134.84 -45.76,-159.98 -29.89,-25.14 -92.74,-37.71 -188.52,-37.71l-142.76 0 0 -164.56 691.85 0 0 1254.19c0,80.56 15.26,133.12 45.76,158.26 30.51,25.15 94.57,37.72 192.79,37.72l101.89 0 0 167.98 -655.25 0 0 -281.69c-70.16,106.85 -159.23,187.98 -267.23,243.41 -107.98,55.42 -231.22,82.85 -369.11,82.85 -111.04,0 -206.82,-16.57 -286.75,-50.28 -80.53,-33.15 -147.02,-84 -199.5,-151.99 -38.43,-49.14 -65.89,-110.28 -82.36,-183.41 -16.47,-73.14 -25.01,-190.84 -25.01,-352.55zm3437.28 -269.69c-3.66,-184.55 -45.14,-321.69 -125.07,-410.82 -79.92,-89.71 -200.11,-134.27 -361.18,-134.27 -150.08,0 -267.83,46.86 -353.25,141.13 -84.81,93.71 -133.61,228.55 -145.2,403.96l984.69 0zm90.91 431.96l215.98 0c-41.49,197.7 -128.13,345.69 -258.69,444.54 -131.17,98.85 -306.87,148.55 -527.12,148.55 -261.12,0 -471.6,-79.99 -631.46,-239.41 -160.44,-159.41 -240.37,-369.69 -240.37,-630.81 0,-261.69 79.93,-472.53 239.15,-631.95 159.85,-159.41 370.33,-239.41 632.68,-239.41 271.49,0 478.92,76.57 622.3,230.27 143.98,153.12 216.59,375.97 219.03,667.94l-1358.08 0 0 23.43c0,202.83 45.75,358.26 137.88,464.53 91.52,106.85 225.12,159.98 400.22,159.98 140.31,0 256.85,-33.71 349.58,-100.57 92.14,-67.42 158.63,-166.26 198.89,-297.12zm805.34 -1408.46c0,-80.57 -15.26,-133.13 -46.37,-158.27 -31.12,-25.14 -95.18,-37.71 -192.18,-37.71l-101.89 0 0 -164.56 658.91 0 0 1936.43c0,81.71 15.26,134.84 45.76,159.41 30.51,24.57 93.35,36.57 189.12,36.57l109.21 0 0 167.98 -1002.99 0 0 -167.98 101.89 0c97.01,0 161.06,-12.57 192.18,-37.72 31.11,-25.14 46.37,-77.71 46.37,-158.26l0 -1575.88zm2016.37 1069.06c-61.62,28 -119.58,52.57 -173.88,73.14 -54.29,20.57 -106.15,38.85 -156.18,54.28l-140.92 44c-122.03,36.57 -209.87,79.43 -264.18,128.57 -54.29,49.14 -81.15,110.28 -81.15,183.98 0,73.71 25.63,132.55 77.49,176.55 51.86,44 121.42,66.29 208.04,66.29 168.39,0 298.35,-47.43 391.69,-141.7 92.74,-94.28 139.1,-227.41 139.1,-400.54l0 -184.55zm21.35 661.66c-96.4,90.28 -198.27,157.69 -305.05,202.83 -107.38,45.15 -219.64,68 -337.39,68 -163.49,0 -294.68,-40 -394.12,-120.56 -99.45,-80.57 -148.86,-186.27 -148.86,-318.27 0,-120.56 44.54,-217.69 133,-291.98 89.07,-74.28 243.42,-140.55 463.67,-198.26l289.18 -75.43c110.44,-29.14 184.25,-62.85 222.07,-101.71 37.23,-38.28 56.14,-97.14 56.14,-176.55 0,-92.57 -36.61,-166.27 -110.43,-221.7 -73.83,-55.42 -172.66,-82.85 -296.51,-82.85 -79.93,0 -153.14,12 -220.24,36 -66.5,24 -127.52,61.14 -183.64,111.42 52.47,9.72 93.35,29.71 122.63,60 29.29,30.28 43.93,68 43.93,113.71 0,49.14 -18.91,89.71 -57.35,121.71 -38.44,31.42 -86.03,47.42 -143.37,47.42 -64.67,0 -117.75,-19.99 -160.45,-59.42 -42.1,-39.43 -63.45,-89.14 -63.45,-149.13 0,-122.85 65.89,-225.69 198.28,-309.69 132.38,-84 299.56,-126.28 500.88,-126.28 102.51,0 198.29,10.86 287.36,33.14 89.69,22.29 160.45,52.57 212.92,90.28 66.51,46.86 113.49,98.86 140.33,155.42 26.84,56.56 40.26,147.41 40.26,271.97l0 799.37c0,74.85 8.54,127.42 25.63,157.7 17.69,30.28 46.37,45.14 86.63,45.14 58.57,0 99.46,-29.71 123.25,-89.71 23.8,-59.43 36.61,-170.27 39.04,-331.98l172.05 0 0 38.29c0,200.55 -30.5,346.26 -92.12,436.53 -61.02,90.28 -159.85,135.41 -295.91,135.41 -93.95,0 -169.61,-22.28 -226.95,-66.85 -56.75,-44.57 -97.62,-112.57 -121.42,-203.98z"/>
    <path class="fil2 str1" d="M9832.9 16039.89c-88.8,84 -219.24,130.28 -337.02,130.28 -327.95,0 -465.65,-217.69 -467.47,-437.08 -1.81,-221.11 144.95,-445.65 467.47,-445.65 117.78,0 237.35,39.42 327.96,123.42l135.87 -123.42c-128.64,-121.7 -293.52,-181.69 -463.83,-181.69 -452.98,0 -670.4,313.68 -668.59,629.06 1.82,315.39 208.37,615.35 668.59,615.35 177.55,0 346.08,-56.57 476.52,-178.26l-139.5 -131.99zm750.17 -575.92c-277.21,0 -460.22,191.97 -460.22,440.51 0,250.25 181.19,438.79 460.22,438.79 280.84,0 463.85,-188.54 463.85,-438.79 0,-248.54 -188.44,-440.51 -463.85,-440.51zm0 162.83c163.06,0 275.41,128.56 275.41,277.68 0,150.83 -103.29,274.25 -275.41,274.25 -170.31,0 -273.6,-123.42 -273.6,-274.25 0,-149.12 103.29,-277.68 273.6,-277.68zm1516.61 699.33l0 -464.5c0,-125.13 85.16,-227.97 217.42,-227.97 132.27,0 197.5,99.42 197.5,224.54l0 467.93 188.43 0 0 -467.93c0,-243.4 -132.26,-390.81 -378.69,-390.81 -121.4,0 -233.73,42.85 -306.2,167.97 -50.74,-125.13 -166.69,-169.68 -280.85,-169.68 -94.23,0 -199.3,34.28 -250.04,126.84l-12.69 -113.13 -173.93 0 0 846.74 186.62 0 0 -464.5c0,-125.13 83.35,-229.68 215.61,-229.68 132.27,0 208.36,104.56 208.36,229.68l0 464.5 188.44 0zm1087.19 -848.45l0 848.45 -186.61 0 0 -848.45 186.61 0zm-208.36 -245.11c0,145.69 231.92,145.69 231.92,0 0,-143.98 -231.92,-143.98 -231.92,0zm933.18 395.95c155.81,0 284.46,111.41 284.46,274.24 0,166.26 -128.65,275.97 -284.46,275.97 -157.64,0 -282.66,-106.28 -282.66,-275.97 0,-173.11 125.02,-274.24 282.66,-274.24zm297.14 -500.5l0 485.07c-57.98,-99.42 -204.73,-150.83 -313.45,-150.83 -259.11,0 -452.98,152.54 -452.98,440.5 0,279.39 197.5,440.51 456.6,440.51 119.59,0 239.17,-42.85 309.83,-150.83l10.88 133.69 175.75 0 0 -1198.11 -186.63 0zm1208.58 486.78c-56.16,-95.99 -177.56,-152.54 -304.4,-152.54 -257.28,0 -462.03,157.69 -462.03,440.5 0,287.97 197.5,447.37 458.41,445.65 110.53,0 248.23,-51.42 308.02,-159.4l9.06 137.12 177.57 0c0,-281.1 0,-563.92 0,-845.03l-181.19 0 -5.44 133.69zm-289.89 8.57c385.93,0 385.93,560.5 0,560.5 -159.46,0 -289.91,-106.28 -289.91,-281.11 0,-173.11 130.45,-279.39 289.91,-279.39zm1300.97 -366.8l0 226.25 -172.12 0 0 152.54 172.12 0 0 402.8c0,198.83 110.53,303.39 304.4,298.24 63.43,0 117.78,-11.99 179.38,-37.71l-54.36 -150.83c-36.23,17.14 -77.91,29.14 -114.15,29.14 -86.98,0 -128.65,-49.71 -128.65,-138.83l0 -402.8 262.72 0 0 -152.54 -260.91 0 0 -245.11 -188.44 18.86zm694.01 224.53l0 845.03 186.62 0 0 -457.65c0,-155.97 112.35,-231.39 240.98,-231.39 68.85,0 112.34,17.14 157.64,51.42l85.16 -154.26c-50.74,-42.85 -134.08,-71.99 -221.05,-71.99 -96.04,0 -197.5,22.28 -262.73,130.27l-12.68 -111.42 -173.94 0zm1540.16 133.69c-56.17,-95.99 -177.56,-152.54 -304.4,-152.54 -257.29,0 -462.03,157.69 -462.03,440.5 0,287.97 197.49,447.37 458.4,445.65 110.53,0 248.24,-51.42 308.03,-159.4l9.06 137.12 177.57 0c0,-281.1 0,-563.92 0,-845.03l-181.19 0 -5.44 133.69zm-289.9 8.57c385.93,0 385.93,560.5 0,560.5 -159.45,0 -289.9,-106.28 -289.9,-281.11 0,-173.11 130.45,-279.39 289.9,-279.39zm1201.33 5.15c155.81,0 284.46,111.41 284.46,274.24 0,166.26 -128.65,275.97 -284.46,275.97 -157.64,0 -282.66,-106.28 -282.66,-275.97 0,-173.11 125.02,-274.24 282.66,-274.24zm297.14 -500.5l0 485.07c-57.98,-99.42 -204.73,-150.83 -313.45,-150.83 -259.11,0 -452.98,152.54 -452.98,440.5 0,279.39 197.5,440.51 456.6,440.51 119.59,0 239.17,-42.85 309.83,-150.83l10.88 133.69 175.75 0 0 -1198.11 -186.63 0zm683.14 349.67l0 848.45 -186.62 0 0 -848.45 186.62 0zm-208.37 -245.11c0,145.69 231.92,145.69 231.92,0 0,-143.98 -231.92,-143.98 -231.92,0zm1146.99 865.59c-57.99,56.57 -135.88,78.85 -211.99,78.85 -154.01,0 -284.47,-94.27 -284.47,-272.53 0,-167.97 125.03,-275.96 286.28,-275.96 70.67,0 144.95,23.99 201.12,75.42l119.58 -118.28c-96.02,-89.13 -199.3,-125.13 -322.51,-125.13 -259.1,0 -471.09,152.55 -471.09,443.94 0,291.39 213.8,443.93 471.09,443.93 128.64,0 239.17,-39.42 338.82,-131.98l-126.83 -118.28zm536.37 -620.48l0 848.45 -186.62 0 0 -848.45 186.62 0zm-208.36 -245.11c0,145.69 231.91,145.69 231.91,0 0,-143.98 -231.91,-143.98 -231.91,0zm922.31 231.39c-277.21,0 -460.22,191.97 -460.22,440.51 0,250.25 181.19,438.79 460.22,438.79 280.84,0 463.85,-188.54 463.85,-438.79 0,-248.54 -188.44,-440.51 -463.85,-440.51zm0 162.83c163.06,0 275.41,128.56 275.41,277.68 0,150.83 -103.29,274.25 -275.41,274.25 -170.31,0 -273.6,-123.42 -273.6,-274.25 0,-149.12 103.29,-277.68 273.6,-277.68zm1583.65 699.33l0 -454.22c0,-258.82 -166.69,-404.51 -384.12,-404.51 -115.97,0 -215.62,44.57 -300.78,135.41l-10.87 -123.42 -170.31 0 0 846.74 186.62 0 0 -442.22c0,-138.83 101.47,-253.68 250.04,-253.68 154.01,0 240.97,97.71 240.97,243.39l0 452.51 188.44 0zm1007.47 -711.33c-56.17,-95.99 -177.56,-152.54 -304.4,-152.54 -257.29,0 -462.03,157.69 -462.03,440.5 0,287.97 197.49,447.37 458.4,445.65 110.53,0 248.24,-51.42 308.03,-159.4l9.06 137.12 177.57 0c0,-281.1 0,-563.92 0,-845.03l-181.19 0 -5.44 133.69zm-289.9 8.57c385.93,0 385.93,560.5 0,560.5 -159.45,0 -289.9,-106.28 -289.9,-281.11 0,-173.11 130.45,-279.39 289.9,-279.39zm793.65 -495.35l0 1198.11 186.63 0 0 -1198.11 -186.63 0z"/>
    <path class="fil3" d="M2835.4 11966.89c960.93,-960.92 2411.44,-1133.42 3548.41,-517.94 57.35,31.05 93.29,82.53 102.69,147.06 9.4,64.54 -10.37,124.13 -56.49,170.24l-465.93 465.94c-50.88,50.87 -121.72,69.57 -187.91,53.36 -738.39,-338.96 -1640.72,-204.55 -2248.87,403.6 -781.02,781.02 -781.02,2047.3 0,2828.31 781.01,781.02 2047.29,781.02 2828.31,0 631.4,-631.39 752.14,-1579.85 362.67,-2332.75 -20.13,-60.2 -10.4,-126.03 27.04,-178.19l482.21 -482.2c45.19,-45.19 103.15,-65.03 166.54,-57 63.41,8.03 114.6,41.67 147.08,96.69 679.5,1150.38 525.17,2656.9 -463.27,3645.34 -1171.53,1171.53 -3070.95,1171.54 -4242.48,0.01 -1171.53,-1171.53 -1171.52,-3070.95 0.01,-4242.48z"/>
    <path class="fil4" d="M6056.34 12705.58l1728.61 -1728.6c77.9,-77.9 204.94,-77.9 282.83,0l0 0c77.9,77.89 77.88,204.95 0,282.83l-1728.6 1728.61c-66.81,66.8 -78.14,168.05 -27.78,248 389.39,618.09 314.93,1444.67 -223.43,1983.03 -624.83,624.82 -1637.84,624.82 -2262.66,0 -624.82,-624.83 -624.82,-1637.84 0,-2262.66 538.37,-538.36 1364.95,-612.8 1983.03,-223.43 79.93,50.36 181.19,39.04 248,-27.78zm1799.32 -1657.9l-282.83 282.83c-38.89,38.89 -38.89,102.53 0,141.41l0 0c38.89,38.89 102.53,38.89 141.41,0l282.83 -282.83c38.89,-38.89 38.89,-102.53 0,-141.41l0 0c-38.89,-38.89 -102.53,-38.89 -141.41,0z"/>
   </g>
  </g>
 </g>
</svg>
