<?xml version="1.0" encoding="UTF-8"?>
<!DOCTYPE svg PUBLIC "-//W3C//DTD SVG 1.1//EN" "http://www.w3.org/Graphics/SVG/1.1/DTD/svg11.dtd">
<!-- Creator: CorelDRAW 2019 (64-Bit) -->
<svg xmlns="http://www.w3.org/2000/svg" xml:space="preserve" width="172.5mm" height="115.164mm" version="1.1" style="shape-rendering:geometricPrecision; text-rendering:geometricPrecision; image-rendering:optimizeQuality; fill-rule:evenodd; clip-rule:evenodd"
viewBox="0 0 17248.9 11515.69"
 xmlns:xlink="http://www.w3.org/1999/xlink"
 xmlns:xodm="http://www.corel.com/coreldraw/odm/2003">
 <defs>
  <style type="text/css">
   <![CDATA[
    .str0 {stroke:#F27801;stroke-width:7.62;stroke-miterlimit:22.9256}
    .fil2 {fill:#F27801}
    .fil3 {fill:#141C26}
    .fil1 {fill:#F27801;fill-rule:nonzero}
    .fil0 {fill:#141C26;fill-rule:nonzero}
   ]]>
  </style>
 </defs>
 <g id="Capa_x0020_1">
  <metadata id="CorelCorpID_0Corel-Layer"/>
  <g id="_1548123805488">
   <path class="fil0" d="M-0 7000.18l1207.97 0 0 181.7 -182.42 0c-106.76,0 -176.92,13.14 -210.48,40 -33.55,26.85 -50.03,97.13 -50.03,210.84l0 1686.11 585.68 0c178.14,0 314.8,-16 411.18,-47.99 97.01,-31.43 164.73,-82.85 204.38,-153.13 31.74,-57.14 54.92,-126.84 69.56,-209.7 14.04,-82.84 21.35,-187.41 21.35,-313.68l0 -50.28 190.35 0 0 956.47 -2247.54 0 0 -181.7 149.47 0c106.14,0 175.7,-13.14 209.87,-40 33.55,-26.85 50.64,-98.27 50.64,-213.12l0 -1432.99c0,-113.7 -16.48,-183.99 -50.04,-210.84 -32.94,-26.86 -103.09,-40 -210.47,-40l-149.47 0 0 -181.7zm3672.09 1429.57c-61.62,28 -119.56,52.57 -173.87,73.14 -54.3,20.57 -106.15,38.85 -156.18,54.28l-140.93 44c-122.01,36.57 -209.86,79.43 -264.16,128.56 -54.29,49.14 -81.15,110.27 -81.15,183.98 0,73.71 25.63,132.55 77.49,176.55 51.86,44 121.4,66.29 208.04,66.29 168.39,0 298.33,-47.43 391.68,-141.7 92.73,-94.27 139.09,-227.41 139.09,-400.54l0 -184.55zm21.36 661.65c-96.39,90.27 -198.27,157.69 -305.04,202.83 -107.37,45.15 -219.64,68 -337.38,68 -163.49,0 -294.67,-40 -394.11,-120.55 -99.44,-80.57 -148.87,-186.27 -148.87,-318.26 0,-120.55 44.55,-217.69 133,-291.97 89.07,-74.28 243.43,-140.55 463.67,-198.26l289.17 -75.43c110.43,-29.14 184.25,-62.85 222.07,-101.7 37.22,-38.28 56.13,-97.13 56.13,-176.55 0,-92.56 -36.6,-166.27 -110.41,-221.7 -73.83,-55.42 -172.66,-82.84 -296.5,-82.84 -79.93,0 -153.14,12 -220.25,36 -66.5,24 -127.5,61.14 -183.63,111.41 52.47,9.72 93.33,29.71 122.62,60 29.29,30.28 43.93,68 43.93,113.7 0,49.14 -18.91,89.7 -57.35,121.7 -38.44,31.42 -86.02,47.42 -143.37,47.42 -64.67,0 -117.74,-19.99 -160.45,-59.42 -42.1,-39.43 -63.46,-89.13 -63.46,-149.13 0,-122.84 65.89,-225.69 198.29,-309.68 132.38,-83.99 299.55,-126.27 500.87,-126.27 102.5,0 198.28,10.86 287.35,33.14 89.68,22.29 160.45,52.57 212.92,90.27 66.51,46.86 113.48,98.85 140.32,155.42 26.85,56.56 40.27,147.41 40.27,271.96l0 799.35c0,74.85 8.54,127.41 25.63,157.7 17.69,30.28 46.37,45.14 86.62,45.14 58.57,0 99.44,-29.71 123.23,-89.7 23.8,-59.43 36.62,-170.27 39.05,-331.97l172.05 0 0 38.29c0,200.55 -30.51,346.25 -92.12,436.52 -61.01,90.27 -159.84,135.41 -295.89,135.41 -93.95,0 -169.61,-22.28 -226.96,-66.85 -56.74,-44.57 -97.6,-112.56 -121.4,-203.98zm3127.9 -661.65c-61.62,28 -119.57,52.57 -173.88,73.14 -54.29,20.57 -106.14,38.85 -156.18,54.28l-140.92 44c-122.02,36.57 -209.87,79.43 -264.17,128.56 -54.29,49.14 -81.15,110.27 -81.15,183.98 0,73.71 25.63,132.55 77.49,176.55 51.86,44 121.41,66.29 208.04,66.29 168.39,0 298.34,-47.43 391.68,-141.7 92.73,-94.27 139.1,-227.41 139.1,-400.54l0 -184.55zm21.35 661.65c-96.39,90.27 -198.27,157.69 -305.04,202.83 -107.37,45.15 -219.64,68 -337.38,68 -163.49,0 -294.67,-40 -394.11,-120.55 -99.44,-80.57 -148.86,-186.27 -148.86,-318.26 0,-120.55 44.54,-217.69 133,-291.97 89.06,-74.28 243.42,-140.55 463.66,-198.26l289.17 -75.43c110.43,-29.14 184.25,-62.85 222.07,-101.7 37.23,-38.28 56.14,-97.13 56.14,-176.55 0,-92.56 -36.61,-166.27 -110.42,-221.7 -73.83,-55.42 -172.66,-82.84 -296.5,-82.84 -79.93,0 -153.14,12 -220.24,36 -66.5,24 -127.51,61.14 -183.64,111.41 52.47,9.72 93.34,29.71 122.62,60 29.29,30.28 43.93,68 43.93,113.7 0,49.14 -18.91,89.7 -57.35,121.7 -38.44,31.42 -86.02,47.42 -143.37,47.42 -64.67,0 -117.74,-19.99 -160.45,-59.42 -42.1,-39.43 -63.45,-89.13 -63.45,-149.13 0,-122.84 65.89,-225.69 198.28,-309.68 132.38,-83.99 299.55,-126.27 500.87,-126.27 102.5,0 198.29,10.86 287.35,33.14 89.68,22.29 160.45,52.57 212.92,90.27 66.51,46.86 113.48,98.85 140.33,155.42 26.84,56.56 40.26,147.41 40.26,271.96l0 799.35c0,74.85 8.54,127.41 25.63,157.7 17.69,30.28 46.37,45.14 86.63,45.14 58.56,0 99.44,-29.71 123.23,-89.7 23.8,-59.43 36.61,-170.27 39.04,-331.97l172.05 0 0 38.29c0,200.55 -30.5,346.25 -92.11,436.52 -61.02,90.27 -159.85,135.41 -295.9,135.41 -93.94,0 -169.61,-22.28 -226.95,-66.85 -56.75,-44.57 -97.61,-112.56 -121.41,-203.98zm1355.61 -609.08c0,205.12 50.03,367.39 150.08,487.38 100.05,119.98 235.5,179.98 405.71,179.98 156.79,0 278.81,-57.71 365.44,-172.56 86.02,-114.84 129.34,-276.54 129.34,-485.09 0,-210.84 -43.32,-374.25 -130.56,-490.8 -86.63,-116.56 -209.26,-174.84 -367.88,-174.84 -166.55,0 -300.77,59.42 -401.44,178.26 -100.66,118.85 -150.69,277.69 -150.69,477.67zm-153.74 838.2l-161.06 0 0 -1960.37c0,-81.14 -15.26,-134.27 -45.76,-158.84 -30.51,-24.57 -93.34,-36.57 -188.52,-36.57l-73.21 0 0 -164.56 622.28 0 0 953.62c76.27,-113.7 164.11,-196.55 263.55,-249.69 99.44,-53.14 216.59,-79.99 350.81,-79.99 236.1,0 426.44,79.99 572.26,239.41 145.8,159.41 219.02,369.1 219.02,627.93 0,256.54 -72.61,463.95 -217.19,622.79 -144.59,158.27 -333.72,237.7 -566.78,237.7 -133.6,0 -251.34,-27.43 -354.45,-82.85 -103.11,-54.85 -192.18,-138.27 -267.22,-249.68l-153.74 301.11zm2096.86 -713.65l0 -562.23c0,-81.71 -15.87,-134.84 -47.59,-159.98 -31.73,-25.14 -95.17,-37.71 -190.35,-37.71l-80.54 0 0 -164.56 629.6 0 0 969.62c0,186.83 28.07,318.82 84.2,395.96 56.13,77.14 150.07,115.41 282.46,115.41 165.33,0 298.94,-50.85 400.22,-153.12 101.27,-102.28 151.91,-237.7 151.91,-406.82l0 -558.81c0,-81.71 -15.26,-134.84 -45.76,-159.98 -29.89,-25.14 -92.73,-37.71 -188.52,-37.71l-142.76 0 0 -164.56 691.84 0 0 1254.16c0,80.56 15.26,133.12 45.76,158.26 30.51,25.15 94.56,37.72 192.79,37.72l101.88 0 0 167.98 -655.23 0 0 -281.68c-70.16,106.84 -159.23,187.98 -267.22,243.41 -107.97,55.42 -231.22,82.84 -369.1,82.84 -111.03,0 -206.82,-16.57 -286.74,-50.28 -80.53,-33.15 -147.02,-83.99 -199.5,-151.99 -38.43,-49.14 -65.89,-110.27 -82.35,-183.41 -16.47,-73.14 -25.01,-190.84 -25.01,-352.54zm3437.2 -269.68c-3.66,-184.55 -45.14,-321.68 -125.06,-410.81 -79.92,-89.7 -200.11,-134.27 -361.17,-134.27 -150.08,0 -267.82,46.86 -353.24,141.13 -84.8,93.7 -133.61,228.55 -145.2,403.96l984.67 0zm90.9 431.95l215.98 0c-41.49,197.7 -128.12,345.68 -258.68,444.53 -131.16,98.84 -306.86,148.55 -527.11,148.55 -261.11,0 -471.59,-79.99 -631.44,-239.41 -160.44,-159.41 -240.37,-369.68 -240.37,-630.79 0,-261.68 79.93,-472.52 239.15,-631.93 159.85,-159.41 370.32,-239.41 632.66,-239.41 271.48,0 478.91,76.57 622.28,230.27 143.98,153.12 216.59,375.96 219.03,667.93l-1358.05 0 0 23.43c0,202.83 45.75,358.25 137.88,464.52 91.51,106.84 225.12,159.98 400.22,159.98 140.31,0 256.84,-33.71 349.57,-100.56 92.13,-67.42 158.63,-166.26 198.89,-297.11zm805.32 -1408.42c0,-80.57 -15.26,-133.13 -46.37,-158.27 -31.12,-25.14 -95.17,-37.71 -192.18,-37.71l-101.88 0 0 -164.56 658.89 0 0 1936.38c0,81.71 15.26,134.84 45.76,159.41 30.51,24.57 93.34,36.57 189.12,36.57l109.2 0 0 167.98 -1002.97 0 0 -167.98 101.88 0c97,0 161.06,-12.57 192.18,-37.72 31.11,-25.14 46.37,-77.71 46.37,-158.26l0 -1575.84zm2016.33 1069.03c-61.62,28 -119.57,52.57 -173.88,73.14 -54.29,20.57 -106.14,38.85 -156.18,54.28l-140.92 44c-122.02,36.57 -209.87,79.43 -264.17,128.56 -54.29,49.14 -81.15,110.27 -81.15,183.98 0,73.71 25.63,132.55 77.49,176.55 51.86,44 121.41,66.29 208.04,66.29 168.39,0 298.34,-47.43 391.68,-141.7 92.73,-94.27 139.1,-227.41 139.1,-400.54l0 -184.55zm21.35 661.65c-96.39,90.27 -198.27,157.69 -305.04,202.83 -107.37,45.15 -219.64,68 -337.38,68 -163.49,0 -294.67,-40 -394.11,-120.55 -99.44,-80.57 -148.86,-186.27 -148.86,-318.26 0,-120.55 44.54,-217.69 133,-291.97 89.06,-74.28 243.42,-140.55 463.66,-198.26l289.17 -75.43c110.43,-29.14 184.25,-62.85 222.07,-101.7 37.23,-38.28 56.14,-97.13 56.14,-176.55 0,-92.56 -36.61,-166.27 -110.42,-221.7 -73.83,-55.42 -172.66,-82.84 -296.5,-82.84 -79.93,0 -153.14,12 -220.24,36 -66.5,24 -127.51,61.14 -183.64,111.41 52.47,9.72 93.34,29.71 122.62,60 29.29,30.28 43.93,68 43.93,113.7 0,49.14 -18.91,89.7 -57.35,121.7 -38.44,31.42 -86.02,47.42 -143.37,47.42 -64.67,0 -117.74,-19.99 -160.45,-59.42 -42.1,-39.43 -63.45,-89.13 -63.45,-149.13 0,-122.84 65.89,-225.69 198.28,-309.68 132.38,-83.99 299.55,-126.27 500.87,-126.27 102.5,0 198.29,10.86 287.35,33.14 89.68,22.29 160.45,52.57 212.92,90.27 66.51,46.86 113.48,98.85 140.33,155.42 26.84,56.56 40.26,147.41 40.26,271.96l0 799.35c0,74.85 8.54,127.41 25.63,157.7 17.69,30.28 46.37,45.14 86.62,45.14 58.57,0 99.45,-29.71 123.24,-89.7 23.8,-59.43 36.61,-170.27 39.04,-331.97l172.05 0 0 38.29c0,200.55 -30.5,346.25 -92.11,436.52 -61.02,90.27 -159.85,135.41 -295.9,135.41 -93.94,0 -169.61,-22.28 -226.95,-66.85 -56.75,-44.57 -97.61,-112.56 -121.41,-203.98z"/>
   <path class="fil1 str0" d="M1032.37 11201.64c-88.79,83.99 -219.24,130.27 -337.01,130.27 -327.94,0 -465.64,-217.69 -467.46,-437.07 -1.81,-221.11 144.95,-445.64 467.46,-445.64 117.77,0 237.35,39.42 327.95,123.41l135.87 -123.41c-128.63,-121.69 -293.51,-181.69 -463.82,-181.69 -452.97,0 -670.39,313.67 -668.58,629.04 1.82,315.38 208.37,615.33 668.58,615.33 177.55,0 346.07,-56.57 476.51,-178.26l-139.5 -131.98zm750.15 -575.9c-277.2,0 -460.21,191.97 -460.21,440.5 0,250.24 181.19,438.78 460.21,438.78 280.83,0 463.84,-188.54 463.84,-438.78 0,-248.53 -188.44,-440.5 -463.84,-440.5zm0 162.83c163.06,0 275.4,128.55 275.4,277.67 0,150.83 -103.28,274.24 -275.4,274.24 -170.31,0 -273.59,-123.41 -273.59,-274.24 0,-149.12 103.28,-277.67 273.59,-277.67zm1516.58 699.32l0 -464.49c0,-125.12 85.15,-227.97 217.42,-227.97 132.27,0 197.5,99.41 197.5,224.54l0 467.92 188.43 0 0 -467.92c0,-243.4 -132.26,-390.8 -378.68,-390.8 -121.39,0 -233.73,42.85 -306.19,167.97 -50.74,-125.12 -166.69,-169.68 -280.84,-169.68 -94.22,0 -199.3,34.28 -250.03,126.83l-12.69 -113.12 -173.93 0 0 846.72 186.62 0 0 -464.49c0,-125.12 83.34,-229.68 215.61,-229.68 132.27,0 208.36,104.55 208.36,229.68l0 464.49 188.44 0zm1087.16 -848.43l0 848.43 -186.61 0 0 -848.43 186.61 0zm-208.36 -245.11c0,145.69 231.92,145.69 231.92,0 0,-143.98 -231.92,-143.98 -231.92,0zm933.16 395.94c155.81,0 284.45,111.4 284.45,274.23 0,166.26 -128.64,275.96 -284.45,275.96 -157.64,0 -282.65,-106.27 -282.65,-275.96 0,-173.11 125.01,-274.23 282.65,-274.23zm297.13 -500.49l0 485.06c-57.98,-99.41 -204.73,-150.83 -313.44,-150.83 -259.1,0 -452.97,152.54 -452.97,440.49 0,279.38 197.5,440.5 456.59,440.5 119.58,0 239.17,-42.85 309.82,-150.83l10.88 133.69 175.75 0 0 -1198.09 -186.63 0zm1208.56 486.77c-56.16,-95.98 -177.56,-152.54 -304.39,-152.54 -257.27,0 -462.02,157.69 -462.02,440.49 0,287.96 197.5,447.36 458.4,445.64 110.52,0 248.22,-51.42 308.01,-159.4l9.06 137.12 177.57 0c0,-281.09 0,-563.91 0,-845.01l-181.19 0 -5.44 133.69zm-289.88 8.57c385.92,0 385.92,560.49 0,560.49 -159.46,0 -289.9,-106.27 -289.9,-281.1 0,-173.11 130.44,-279.38 289.9,-279.38zm1300.94 -366.79l0 226.25 -172.12 0 0 152.54 172.12 0 0 402.8c0,198.83 110.52,303.38 304.39,298.23 63.43,0 117.77,-11.99 179.38,-37.71l-54.36 -150.83c-36.23,17.14 -77.91,29.14 -114.14,29.14 -86.97,0 -128.64,-49.71 -128.64,-138.83l0 -402.8 262.71 0 0 -152.54 -260.9 0 0 -245.11 -188.44 18.86zm694 224.53l0 845.01 186.62 0 0 -457.64c0,-155.97 112.34,-231.39 240.98,-231.39 68.85,0 112.33,17.14 157.64,51.42l85.15 -154.26c-50.74,-42.85 -134.08,-71.99 -221.05,-71.99 -96.03,0 -197.5,22.28 -262.72,130.26l-12.68 -111.41 -173.94 0zm1540.13 133.69c-56.17,-95.98 -177.56,-152.54 -304.39,-152.54 -257.28,0 -462.02,157.69 -462.02,440.49 0,287.96 197.49,447.36 458.39,445.64 110.52,0 248.23,-51.42 308.02,-159.4l9.06 137.12 177.57 0c0,-281.09 0,-563.91 0,-845.01l-181.19 0 -5.44 133.69zm-289.89 8.57c385.92,0 385.92,560.49 0,560.49 -159.45,0 -289.89,-106.27 -289.89,-281.1 0,-173.11 130.44,-279.38 289.89,-279.38zm1201.31 5.15c155.81,0 284.45,111.4 284.45,274.23 0,166.26 -128.64,275.96 -284.45,275.96 -157.64,0 -282.65,-106.27 -282.65,-275.96 0,-173.11 125.01,-274.23 282.65,-274.23zm297.13 -500.49l0 485.06c-57.98,-99.41 -204.73,-150.83 -313.44,-150.83 -259.1,0 -452.97,152.54 -452.97,440.49 0,279.38 197.5,440.5 456.59,440.5 119.58,0 239.17,-42.85 309.82,-150.83l10.88 133.69 175.75 0 0 -1198.09 -186.63 0zm683.13 349.66l0 848.43 -186.62 0 0 -848.43 186.62 0zm-208.37 -245.11c0,145.69 231.92,145.69 231.92,0 0,-143.98 -231.92,-143.98 -231.92,0zm1146.96 865.57c-57.99,56.57 -135.88,78.85 -211.99,78.85 -154.01,0 -284.46,-94.26 -284.46,-272.52 0,-167.97 125.02,-275.95 286.27,-275.95 70.67,0 144.95,23.99 201.12,75.42l119.57 -118.27c-96.01,-89.12 -199.3,-125.12 -322.5,-125.12 -259.09,0 -471.08,152.55 -471.08,443.93 0,291.38 213.8,443.92 471.08,443.92 128.63,0 239.17,-39.42 338.81,-131.97l-126.82 -118.27zm536.36 -620.46l0 848.43 -186.62 0 0 -848.43 186.62 0zm-208.36 -245.11c0,145.69 231.91,145.69 231.91,0 0,-143.98 -231.91,-143.98 -231.91,0zm922.28 231.39c-277.2,0 -460.21,191.97 -460.21,440.5 0,250.24 181.19,438.78 460.21,438.78 280.83,0 463.84,-188.54 463.84,-438.78 0,-248.53 -188.44,-440.5 -463.84,-440.5zm0 162.83c163.06,0 275.4,128.55 275.4,277.67 0,150.83 -103.28,274.24 -275.4,274.24 -170.31,0 -273.59,-123.41 -273.59,-274.24 0,-149.12 103.28,-277.67 273.59,-277.67zm1583.61 699.32l0 -454.21c0,-258.81 -166.69,-404.51 -384.11,-404.51 -115.96,0 -215.62,44.57 -300.77,135.41l-10.87 -123.41 -170.31 0 0 846.72 186.62 0 0 -442.21c0,-138.83 101.46,-253.67 250.03,-253.67 154.01,0 240.97,97.7 240.97,243.39l0 452.5 188.44 0zm1007.45 -711.32c-56.17,-95.98 -177.56,-152.54 -304.39,-152.54 -257.28,0 -462.02,157.69 -462.02,440.49 0,287.96 197.49,447.36 458.39,445.64 110.52,0 248.23,-51.42 308.02,-159.4l9.06 137.12 177.57 0c0,-281.09 0,-563.91 0,-845.01l-181.19 0 -5.44 133.69zm-289.89 8.57c385.92,0 385.92,560.49 0,560.49 -159.45,0 -289.89,-106.27 -289.89,-281.1 0,-173.11 130.44,-279.38 289.89,-279.38zm793.63 -495.34l0 1198.09 186.63 0 0 -1198.09 -186.63 0z"/>
   <g>
    <path class="fil2" d="M6370.24 1048.32c960.91,-960.9 2411.38,-1133.39 3548.32,-517.93 57.35,31.05 93.28,82.52 102.68,147.06 9.4,64.54 -10.37,124.12 -56.49,170.24l-465.92 465.93c-50.88,50.87 -121.71,69.57 -187.91,53.36 -738.38,-338.95 -1640.68,-204.55 -2248.82,403.6 -781,781 -781,2047.26 0,2828.25 780.99,781 2047.25,781 2828.25,0 631.38,-631.37 752.12,-1579.81 362.66,-2332.7 -20.13,-60.2 -10.4,-126.02 27.04,-178.19l482.2 -482.19c45.19,-45.19 103.14,-65.03 166.54,-57 63.41,8.03 114.59,41.67 147.08,96.68 679.49,1150.35 525.16,2656.84 -463.26,3645.26 -1171.5,1171.5 -3070.88,1171.51 -4242.38,0.01 -1171.5,-1171.5 -1171.49,-3070.88 0.01,-4242.38z"/>
    <path class="fil3" d="M9591.11 1786.99l1728.57 -1728.56c77.9,-77.9 204.94,-77.9 282.82,0l0 0c77.9,77.89 77.88,204.95 0,282.82l-1728.56 1728.57c-66.81,66.8 -78.14,168.05 -27.78,247.99 389.38,618.07 314.92,1444.63 -223.43,1982.99 -624.81,624.8 -1637.8,624.8 -2262.61,0 -624.8,-624.81 -624.8,-1637.8 0,-2262.61 538.36,-538.35 1364.92,-612.78 1982.99,-223.43 79.93,50.36 181.19,39.04 247.99,-27.78zm1799.28 -1657.86l-282.82 282.82c-38.89,38.89 -38.89,102.52 0,141.41l0 0c38.89,38.89 102.52,38.89 141.41,0l282.82 -282.82c38.89,-38.89 38.89,-102.52 0,-141.41l0 0c-38.89,-38.89 -102.52,-38.89 -141.41,0z"/>
   </g>
  </g>
 </g>
</svg>
